<svg width="50" height="76" viewBox="0 0 50 76" fill="none" xmlns="http://www.w3.org/2000/svg">
<rect width="50" height="50.3822" rx="5" fill="#D90429"/>
<path fill-rule="evenodd" clip-rule="evenodd" d="M11.4326 20.1287C11.4326 20.1287 17.7179 19.0018 17.8476 14.9351C17.9774 10.8684 18.4194 6.5872 25.3334 7.47494C25.3334 7.47494 30.6729 8.97548 31.0259 14.1194C31.0259 14.1194 30.7595 16.4668 29.1709 17.4239L29.2231 18.9688C29.2424 19.5388 28.7856 20.0113 28.2153 20.0113V20.8362C28.2153 21.0509 28.0413 21.2249 27.8267 21.2249L27.7944 21.4114C27.7168 21.8596 27.3465 22.199 26.8932 22.2373L26.4528 22.2745L26.375 22.9027C26.3129 23.4036 25.8848 23.7669 25.3946 23.6469C24.8403 23.5112 24.0637 23.2368 23.1893 22.682L22.5988 23.7797C22.5988 23.7797 24.5104 23.6952 25.3334 24.0836C26.1564 24.4721 29.9793 26.0684 30.4876 29.7464L30.3789 28.8395C30.3789 28.8395 34.4212 28.6719 35.4552 32.9075L34.9555 32.658C34.9555 32.658 36.1265 33.633 37.0705 33.1455C38.0145 32.658 42.6844 25.0604 42.8759 23.7797C43.0674 22.4989 42.7242 20.6182 42.7242 20.6182L42.746 22.1812C42.746 22.1812 39.622 21.6155 38.9171 17.7123C38.7093 16.5615 38.865 14.9965 39.8678 13.8087C39.8678 13.8087 42.1447 10.7794 46.0615 11.5617C46.7236 11.6939 47.6127 12.3406 48.4099 13.2191L46.5323 14.3525C46.5323 14.3525 49.3923 13.1189 50 14.1194V23.7797C50 23.7797 48.1206 24.8316 45.9969 24.0836C45.9969 24.0836 42.4234 41.7122 39.5416 42.0466C36.6598 42.3809 28.8726 38.8994 27.6627 36.9162L26.494 37.8564C26.494 37.8564 26.9469 41.1201 26.9469 42.964C26.9469 42.964 29.4161 48.9544 29.6886 50.3825H12.0677C12.0677 50.3825 10.7338 41.0107 6.73851 37.1066C6.73851 37.1066 4.17785 41.285 2 43.0002C2 43.0002 2.13039 43.5116 0 46.0002V32.0582L1.51888 30.5584L1.98497 31.7883C1.98497 31.7883 0.212103 26.0127 5.88856 23.0069C6.75705 22.547 7.51827 22.2745 8.21085 22.0907C8.90342 21.9068 9.87326 21.9694 10.6667 21.9184L9.05724 21.6892C9.05724 21.6892 10.3204 20.5454 11.4326 20.1287Z" fill="#EDF2F4"/>
<path d="M7.478 75.324C6.056 75.324 4.823 75.054 3.779 74.514C2.753 73.956 1.961 73.209 1.403 72.273C0.845 71.319 0.566 70.266 0.566 69.114V61.149H4.751V69.006C4.751 69.726 5.003 70.356 5.507 70.896C6.029 71.418 6.677 71.679 7.451 71.679C8.207 71.679 8.837 71.418 9.341 70.896C9.863 70.356 10.124 69.726 10.124 69.006V61.149H14.309V69.114C14.309 70.266 14.039 71.319 13.499 72.273C12.959 73.209 12.176 73.956 11.15 74.514C10.124 75.054 8.9 75.324 7.478 75.324ZM17.279 75V61.689C17.279 60.645 17.531 59.7 18.035 58.854C18.557 58.008 19.25 57.342 20.114 56.856C20.996 56.352 21.977 56.1 23.057 56.1H30.104V59.88H23.624C23.12 59.88 22.688 60.06 22.328 60.42C21.986 60.78 21.815 61.221 21.815 61.743V64.47H29.186V68.223H21.815V75H17.279ZM32.4703 75V61.149H36.6823V75H32.4703ZM34.5763 59.583C33.9103 59.583 33.3343 59.34 32.8483 58.854C32.3623 58.368 32.1193 57.792 32.1193 57.126C32.1193 56.442 32.3623 55.857 32.8483 55.371C33.3343 54.885 33.9103 54.642 34.5763 54.642C35.2603 54.642 35.8363 54.885 36.3043 55.371C36.7903 55.857 37.0333 56.442 37.0333 57.126C37.0333 57.792 36.7903 58.368 36.3043 58.854C35.8363 59.34 35.2603 59.583 34.5763 59.583ZM44.8236 75C43.5456 75 42.5466 74.64 41.8266 73.92C41.1066 73.2 40.7466 72.21 40.7466 70.95V64.578H38.4786V61.149H40.7466V57.774H44.9586V61.149H48.7656V64.578H44.9586V70.707C44.9586 70.941 45.0306 71.13 45.1746 71.274C45.3186 71.418 45.5076 71.49 45.7416 71.49H48.7656V75H44.8236Z" fill="#EDF2F4"/>
</svg>
